<svg class="marks" width="1130" height="336" viewBox="0 0 565 168" version="1.1" xmlns="http://www.w3.org/2000/svg" xmlns:xlink="http://www.w3.org/1999/xlink"><g transform="translate(159,23)"><g class="mark-group role-frame root"><g transform="translate(0,0)"><path class="background" d="M0.5,0.5h400v105h-400Z" style="fill: none; stroke: #ddd;"></path><g><g class="mark-group role-axis"><g transform="translate(0.5,105.5)"><path class="background" d="M0,0h0v0h0Z" style="pointer-events: none; fill: none;"></path><g><g class="mark-rule role-axis-grid" style="pointer-events: none;"><line transform="translate(0,0)" x2="0" y2="-105" style="fill: none; stroke: #ddd; stroke-width: 1; opacity: 1;"></line><line transform="translate(44,0)" x2="0" y2="-105" style="fill: none; stroke: #ddd; stroke-width: 1; opacity: 1;"></line><line transform="translate(89,0)" x2="0" y2="-105" style="fill: none; stroke: #ddd; stroke-width: 1; opacity: 1;"></line><line transform="translate(133,0)" x2="0" y2="-105" style="fill: none; stroke: #ddd; stroke-width: 1; opacity: 1;"></line><line transform="translate(178,0)" x2="0" y2="-105" style="fill: none; stroke: #ddd; stroke-width: 1; opacity: 1;"></line><line transform="translate(222,0)" x2="0" y2="-105" style="fill: none; stroke: #ddd; stroke-width: 1; opacity: 1;"></line><line transform="translate(267,0)" x2="0" y2="-105" style="fill: none; stroke: #ddd; stroke-width: 1; opacity: 1;"></line><line transform="translate(311,0)" x2="0" y2="-105" style="fill: none; stroke: #ddd; stroke-width: 1; opacity: 1;"></line><line transform="translate(356,0)" x2="0" y2="-105" style="fill: none; stroke: #ddd; stroke-width: 1; opacity: 1;"></line><line transform="translate(400,0)" x2="0" y2="-105" style="fill: none; stroke: #ddd; stroke-width: 1; opacity: 1;"></line></g></g></g></g><g class="mark-rect role-mark marks"><path d="M0,1.0499999999999972h372.6222222222222v18.900000000000002h-372.6222222222222Z" style="fill: #4c78a8;"></path><path d="M0,22.049999999999997h279.46666666666664v18.900000000000002h-279.46666666666664Z" style="fill: #4c78a8;"></path><path d="M0,43.05h397.5111111111111v18.900000000000002h-397.5111111111111Z" style="fill: #4c78a8;"></path><path d="M0,64.05h197.15555555555554v18.900000000000002h-197.15555555555554Z" style="fill: #4c78a8;"></path><path d="M0,85.05h68.80000000000001v18.900000000000002h-68.80000000000001Z" style="fill: #4c78a8;"></path></g><g class="mark-text role-title" style="pointer-events: none;"><text text-anchor="middle" transform="translate(200,-7)" style="font: bold 13px sans-serif; fill: #000; opacity: 1;">CSO activities during previous visit</text></g><g class="mark-group role-axis"><g transform="translate(0.5,105.5)"><path class="background" d="M0,0h0v0h0Z" style="pointer-events: none; fill: none;"></path><g><g class="mark-rule role-axis-tick" style="pointer-events: none;"><line transform="translate(0,0)" x2="0" y2="5" style="fill: none; stroke: #888; stroke-width: 1; opacity: 1;"></line><line transform="translate(44,0)" x2="0" y2="5" style="fill: none; stroke: #888; stroke-width: 1; opacity: 1;"></line><line transform="translate(89,0)" x2="0" y2="5" style="fill: none; stroke: #888; stroke-width: 1; opacity: 1;"></line><line transform="translate(133,0)" x2="0" y2="5" style="fill: none; stroke: #888; stroke-width: 1; opacity: 1;"></line><line transform="translate(178,0)" x2="0" y2="5" style="fill: none; stroke: #888; stroke-width: 1; opacity: 1;"></line><line transform="translate(222,0)" x2="0" y2="5" style="fill: none; stroke: #888; stroke-width: 1; opacity: 1;"></line><line transform="translate(267,0)" x2="0" y2="5" style="fill: none; stroke: #888; stroke-width: 1; opacity: 1;"></line><line transform="translate(311,0)" x2="0" y2="5" style="fill: none; stroke: #888; stroke-width: 1; opacity: 1;"></line><line transform="translate(356,0)" x2="0" y2="5" style="fill: none; stroke: #888; stroke-width: 1; opacity: 1;"></line><line transform="translate(400,0)" x2="0" y2="5" style="fill: none; stroke: #888; stroke-width: 1; opacity: 1;"></line></g><g class="mark-text role-axis-label" style="pointer-events: none;"><text text-anchor="start" transform="translate(0,15)" style="font: 10px sans-serif; fill: #000; opacity: 1;">0</text><text text-anchor="middle" transform="translate(44.44444444444444,15)" style="font: 10px sans-serif; fill: #000; opacity: 1;">10</text><text text-anchor="middle" transform="translate(88.88888888888889,15)" style="font: 10px sans-serif; fill: #000; opacity: 1;">20</text><text text-anchor="middle" transform="translate(133.33333333333331,15)" style="font: 10px sans-serif; fill: #000; opacity: 1;">30</text><text text-anchor="middle" transform="translate(177.77777777777777,15)" style="font: 10px sans-serif; fill: #000; opacity: 1;">40</text><text text-anchor="middle" transform="translate(222.22222222222223,15)" style="font: 10px sans-serif; fill: #000; opacity: 1;">50</text><text text-anchor="middle" transform="translate(266.66666666666663,15)" style="font: 10px sans-serif; fill: #000; opacity: 1;">60</text><text text-anchor="middle" transform="translate(311.11111111111114,15)" style="font: 10px sans-serif; fill: #000; opacity: 1;">70</text><text text-anchor="middle" transform="translate(355.55555555555554,15)" style="font: 10px sans-serif; fill: #000; opacity: 1;">80</text><text text-anchor="end" transform="translate(400,15)" style="font: 10px sans-serif; fill: #000; opacity: 1;">90</text></g><g class="mark-rule role-axis-domain" style="pointer-events: none;"><line transform="translate(0,0)" x2="400" y2="0" style="fill: none; stroke: #888; stroke-width: 1; opacity: 1;"></line></g><g class="mark-text role-axis-title" style="pointer-events: none;"><text text-anchor="middle" transform="translate(200,31)" style="font: bold 11px sans-serif; fill: #000; opacity: 1;">% of teachers responding</text></g></g></g></g><g class="mark-group role-axis"><g transform="translate(0.5,0.5)"><path class="background" d="M0,0h0v0h0Z" style="pointer-events: none; fill: none;"></path><g><g class="mark-rule role-axis-tick" style="pointer-events: none;"><line transform="translate(0,9)" x2="-5" y2="0" style="fill: none; stroke: #888; stroke-width: 1; opacity: 1;"></line><line transform="translate(0,31)" x2="-5" y2="0" style="fill: none; stroke: #888; stroke-width: 1; opacity: 1;"></line><line transform="translate(0,52)" x2="-5" y2="0" style="fill: none; stroke: #888; stroke-width: 1; opacity: 1;"></line><line transform="translate(0,73)" x2="-5" y2="0" style="fill: none; stroke: #888; stroke-width: 1; opacity: 1;"></line><line transform="translate(0,94)" x2="-5" y2="0" style="fill: none; stroke: #888; stroke-width: 1; opacity: 1;"></line></g><g class="mark-text role-axis-label" style="pointer-events: none;"><text text-anchor="end" transform="translate(-7,12.499999999999998)" style="font: 10px sans-serif; fill: #000; opacity: 1;">Assessed pupils</text><text text-anchor="end" transform="translate(-7,33.5)" style="font: 10px sans-serif; fill: #000; opacity: 1;">Talked to HT</text><text text-anchor="end" transform="translate(-7,54.5)" style="font: 10px sans-serif; fill: #000; opacity: 1;">Provided feedback on lesson</text><text text-anchor="end" transform="translate(-7,75.5)" style="font: 10px sans-serif; fill: #000; opacity: 1;">Had general talk</text><text text-anchor="end" transform="translate(-7,96.5)" style="font: 10px sans-serif; fill: #000; opacity: 1;">Other</text></g><g class="mark-rule role-axis-domain" style="pointer-events: none;"><line transform="translate(0,0)" x2="0" y2="105" style="fill: none; stroke: #888; stroke-width: 1; opacity: 1;"></line></g><g class="mark-text role-axis-title" style="pointer-events: none;"><text text-anchor="middle" transform="translate(-140.41796875,52.5) rotate(-90) translate(0,-2)" style="font: bold 11px sans-serif; fill: #000; opacity: 1;">Activities named</text></g></g></g></g></g></g></g></g></svg>