<svg class="marks" width="914" height="726" viewBox="0 0 457 363" version="1.1" xmlns="http://www.w3.org/2000/svg" xmlns:xlink="http://www.w3.org/1999/xlink"><g transform="translate(52,23)"><g class="mark-group role-frame root"><g transform="translate(0,0)"><path class="background" d="M0.5,0.5h400v300h-400Z" style="fill: none; stroke: #ddd;"></path><g><g class="mark-group role-axis"><g transform="translate(0.5,0.5)"><path class="background" d="M0,0h0v0h0Z" style="pointer-events: none; fill: none;"></path><g><g class="mark-rule role-axis-grid" style="pointer-events: none;"><line transform="translate(0,300)" x2="400" y2="0" style="fill: none; stroke: #ddd; stroke-width: 1; opacity: 1;"></line><line transform="translate(0,242)" x2="400" y2="0" style="fill: none; stroke: #ddd; stroke-width: 1; opacity: 1;"></line><line transform="translate(0,185)" x2="400" y2="0" style="fill: none; stroke: #ddd; stroke-width: 1; opacity: 1;"></line><line transform="translate(0,127)" x2="400" y2="0" style="fill: none; stroke: #ddd; stroke-width: 1; opacity: 1;"></line><line transform="translate(0,69)" x2="400" y2="0" style="fill: none; stroke: #ddd; stroke-width: 1; opacity: 1;"></line><line transform="translate(0,12)" x2="400" y2="0" style="fill: none; stroke: #ddd; stroke-width: 1; opacity: 1;"></line></g></g></g></g><g class="mark-rect role-mark marks"><path d="M319.51851851851853,288.46153846153845h6.407407407407391v11.538461538461547h-6.407407407407391Z" style="fill: #4c78a8;"></path><path d="M334.33333333333337,265.38461538461536h6.407407407407391v34.61538461538464h-6.407407407407391Z" style="fill: #4c78a8;"></path><path d="M30.629629629629626,253.84615384615384h6.407407407407412v46.15384615384616h-6.407407407407412Z" style="fill: #4c78a8;"></path><path d="M186.1851851851852,230.76923076923077h6.407407407407391v69.23076923076923h-6.407407407407391Z" style="fill: #4c78a8;"></path><path d="M126.92592592592592,276.9230769230769h6.407407407407391v23.076923076923094h-6.407407407407391Z" style="fill: #4c78a8;"></path><path d="M8.407407407407407,265.38461538461536h6.4074074074074066v34.61538461538464h-6.4074074074074066Z" style="fill: #4c78a8;"></path><path d="M304.7037037037037,0h6.407407407407447v300h-6.407407407407447Z" style="fill: #4c78a8;"></path><path d="M230.62962962962962,288.46153846153845h6.407407407407391v11.538461538461547h-6.407407407407391Z" style="fill: #4c78a8;"></path><path d="M297.2962962962963,0h6.407407407407391v300h-6.407407407407391Z" style="fill: #4c78a8;"></path><path d="M141.74074074074073,276.9230769230769h6.407407407407419v23.076923076923094h-6.407407407407419Z" style="fill: #4c78a8;"></path><path d="M119.5185185185185,242.30769230769232h6.407407407407419v57.69230769230768h-6.407407407407419Z" style="fill: #4c78a8;"></path><path d="M104.7037037037037,265.38461538461536h6.407407407407419v34.61538461538464h-6.407407407407419Z" style="fill: #4c78a8;"></path><path d="M97.29629629629629,288.46153846153845h6.407407407407405v11.538461538461547h-6.407407407407405Z" style="fill: #4c78a8;"></path><path d="M275.0740740740741,276.9230769230769h6.407407407407391v23.076923076923094h-6.407407407407391Z" style="fill: #4c78a8;"></path><path d="M38.03703703703704,288.46153846153845h6.407407407407405v11.538461538461547h-6.407407407407405Z" style="fill: #4c78a8;"></path><path d="M149.14814814814815,276.9230769230769h6.407407407407419v23.076923076923094h-6.407407407407419Z" style="fill: #4c78a8;"></path><path d="M215.81481481481484,265.38461538461536h6.407407407407391v34.61538461538464h-6.407407407407391Z" style="fill: #4c78a8;"></path><path d="M178.77777777777777,230.76923076923077h6.407407407407419v69.23076923076923h-6.407407407407419Z" style="fill: #4c78a8;"></path><path d="M134.33333333333331,242.30769230769232h6.407407407407419v57.69230769230768h-6.407407407407419Z" style="fill: #4c78a8;"></path><path d="M326.9259259259259,276.9230769230769h6.407407407407447v23.076923076923094h-6.407407407407447Z" style="fill: #4c78a8;"></path><path d="M363.962962962963,288.46153846153845h6.407407407407391v11.538461538461547h-6.407407407407391Z" style="fill: #4c78a8;"></path><path d="M112.11111111111111,265.38461538461536h6.407407407407391v34.61538461538464h-6.407407407407391Z" style="fill: #4c78a8;"></path><path d="M260.25925925925924,288.46153846153845h6.407407407407391v11.538461538461547h-6.407407407407391Z" style="fill: #4c78a8;"></path><path d="M156.55555555555557,276.9230769230769h6.407407407407391v23.076923076923094h-6.407407407407391Z" style="fill: #4c78a8;"></path><path d="M289.88888888888886,265.38461538461536h6.407407407407447v34.61538461538464h-6.407407407407447Z" style="fill: #4c78a8;"></path><path d="M208.4074074074074,276.9230769230769h6.407407407407447v23.076923076923094h-6.407407407407447Z" style="fill: #4c78a8;"></path><path d="M393.5925925925926,288.46153846153845h6.407407407407391v11.538461538461547h-6.407407407407391Z" style="fill: #4c78a8;"></path><path d="M349.14814814814815,288.46153846153845h6.407407407407391v11.538461538461547h-6.407407407407391Z" style="fill: #4c78a8;"></path><path d="M245.44444444444446,276.9230769230769h6.407407407407391v23.076923076923094h-6.407407407407391Z" style="fill: #4c78a8;"></path><path d="M1,288.46153846153845h6.4074074074074066v11.538461538461547h-6.4074074074074066Z" style="fill: #4c78a8;"></path><path d="M89.88888888888889,276.9230769230769h6.407407407407405v23.076923076923094h-6.407407407407405Z" style="fill: #4c78a8;"></path><path d="M52.85185185185185,288.46153846153845h6.407407407407405v11.538461538461547h-6.407407407407405Z" style="fill: #4c78a8;"></path><path d="M23.22222222222222,288.46153846153845h6.407407407407405v11.538461538461547h-6.407407407407405Z" style="fill: #4c78a8;"></path><path d="M267.66666666666663,288.46153846153845h6.407407407407447v11.538461538461547h-6.407407407407447Z" style="fill: #4c78a8;"></path><path d="M193.59259259259258,288.46153846153845h6.407407407407419v11.538461538461547h-6.407407407407419Z" style="fill: #4c78a8;"></path><path d="M282.48148148148147,265.38461538461536h6.407407407407391v34.61538461538464h-6.407407407407391Z" style="fill: #4c78a8;"></path></g><g class="mark-text role-title" style="pointer-events: none;"><text text-anchor="middle" transform="translate(200,-7)" style="font: bold 13px sans-serif; fill: #000; opacity: 1;">Distribution of CSO tablet usage, months</text></g><g class="mark-group role-axis"><g transform="translate(0.5,300.5)"><path class="background" d="M0,0h0v0h0Z" style="pointer-events: none; fill: none;"></path><g><g class="mark-rule role-axis-tick" style="pointer-events: none;"><line transform="translate(0,0)" x2="0" y2="5" style="fill: none; stroke: #888; stroke-width: 1; opacity: 1;"></line><line transform="translate(30,0)" x2="0" y2="5" style="fill: none; stroke: #888; stroke-width: 1; opacity: 1;"></line><line transform="translate(59,0)" x2="0" y2="5" style="fill: none; stroke: #888; stroke-width: 1; opacity: 1;"></line><line transform="translate(89,0)" x2="0" y2="5" style="fill: none; stroke: #888; stroke-width: 1; opacity: 1;"></line><line transform="translate(119,0)" x2="0" y2="5" style="fill: none; stroke: #888; stroke-width: 1; opacity: 1;"></line><line transform="translate(148,0)" x2="0" y2="5" style="fill: none; stroke: #888; stroke-width: 1; opacity: 1;"></line><line transform="translate(178,0)" x2="0" y2="5" style="fill: none; stroke: #888; stroke-width: 1; opacity: 1;"></line><line transform="translate(207,0)" x2="0" y2="5" style="fill: none; stroke: #888; stroke-width: 1; opacity: 1;"></line><line transform="translate(237,0)" x2="0" y2="5" style="fill: none; stroke: #888; stroke-width: 1; opacity: 1;"></line><line transform="translate(267,0)" x2="0" y2="5" style="fill: none; stroke: #888; stroke-width: 1; opacity: 1;"></line><line transform="translate(296,0)" x2="0" y2="5" style="fill: none; stroke: #888; stroke-width: 1; opacity: 1;"></line><line transform="translate(326,0)" x2="0" y2="5" style="fill: none; stroke: #888; stroke-width: 1; opacity: 1;"></line><line transform="translate(356,0)" x2="0" y2="5" style="fill: none; stroke: #888; stroke-width: 1; opacity: 1;"></line><line transform="translate(385,0)" x2="0" y2="5" style="fill: none; stroke: #888; stroke-width: 1; opacity: 1;"></line></g><g class="mark-text role-axis-label" style="pointer-events: none;"><text text-anchor="start" transform="translate(0,15)" style="font: 10px sans-serif; fill: #000; opacity: 1;">1</text><text text-anchor="middle" transform="translate(29.629629629629626,15)" style="font: 10px sans-serif; fill: #000; opacity: 1;">5</text><text text-anchor="middle" transform="translate(59.25925925925925,15)" style="font: 10px sans-serif; fill: #000; opacity: 1;">9</text><text text-anchor="middle" transform="translate(88.88888888888889,15)" style="font: 10px sans-serif; fill: #000; opacity: 1;">13</text><text text-anchor="middle" transform="translate(118.5185185185185,15)" style="font: 10px sans-serif; fill: #000; opacity: 1;">17</text><text text-anchor="middle" transform="translate(148.14814814814815,15)" style="font: 10px sans-serif; fill: #000; opacity: 1;">21</text><text text-anchor="middle" transform="translate(177.77777777777777,15)" style="font: 10px sans-serif; fill: #000; opacity: 1;">25</text><text text-anchor="middle" transform="translate(207.4074074074074,15)" style="font: 10px sans-serif; fill: #000; opacity: 1;">29</text><text text-anchor="middle" transform="translate(237.037037037037,15)" style="font: 10px sans-serif; fill: #000; opacity: 1;">33</text><text text-anchor="middle" transform="translate(266.66666666666663,15)" style="font: 10px sans-serif; fill: #000; opacity: 1;">37</text><text text-anchor="middle" transform="translate(296.2962962962963,15)" style="font: 10px sans-serif; fill: #000; opacity: 1;">41</text><text text-anchor="middle" transform="translate(325.9259259259259,15)" style="font: 10px sans-serif; fill: #000; opacity: 1;">45</text><text text-anchor="middle" transform="translate(355.55555555555554,15)" style="font: 10px sans-serif; fill: #000; opacity: 1;">49</text><text text-anchor="middle" transform="translate(385.18518518518516,15)" style="font: 10px sans-serif; fill: #000; opacity: 1;">53</text></g><g class="mark-rule role-axis-domain" style="pointer-events: none;"><line transform="translate(0,0)" x2="400" y2="0" style="fill: none; stroke: #888; stroke-width: 1; opacity: 1;"></line></g><g class="mark-text role-axis-title" style="pointer-events: none;"><text text-anchor="middle" transform="translate(200,31)" style="font: bold 11px sans-serif; fill: #000; opacity: 1;"># Months has had a tablet</text></g></g></g></g><g class="mark-group role-axis"><g transform="translate(0.5,0.5)"><path class="background" d="M0,0h0v0h0Z" style="pointer-events: none; fill: none;"></path><g><g class="mark-rule role-axis-tick" style="pointer-events: none;"><line transform="translate(0,300)" x2="-5" y2="0" style="fill: none; stroke: #888; stroke-width: 1; opacity: 1;"></line><line transform="translate(0,242)" x2="-5" y2="0" style="fill: none; stroke: #888; stroke-width: 1; opacity: 1;"></line><line transform="translate(0,185)" x2="-5" y2="0" style="fill: none; stroke: #888; stroke-width: 1; opacity: 1;"></line><line transform="translate(0,127)" x2="-5" y2="0" style="fill: none; stroke: #888; stroke-width: 1; opacity: 1;"></line><line transform="translate(0,69)" x2="-5" y2="0" style="fill: none; stroke: #888; stroke-width: 1; opacity: 1;"></line><line transform="translate(0,12)" x2="-5" y2="0" style="fill: none; stroke: #888; stroke-width: 1; opacity: 1;"></line></g><g class="mark-text role-axis-label" style="pointer-events: none;"><text text-anchor="end" transform="translate(-7,303)" style="font: 10px sans-serif; fill: #000; opacity: 1;">0</text><text text-anchor="end" transform="translate(-7,245.30769230769232)" style="font: 10px sans-serif; fill: #000; opacity: 1;">5</text><text text-anchor="end" transform="translate(-7,187.6153846153846)" style="font: 10px sans-serif; fill: #000; opacity: 1;">10</text><text text-anchor="end" transform="translate(-7,129.92307692307693)" style="font: 10px sans-serif; fill: #000; opacity: 1;">15</text><text text-anchor="end" transform="translate(-7,72.23076923076923)" style="font: 10px sans-serif; fill: #000; opacity: 1;">20</text><text text-anchor="end" transform="translate(-7,14.538461538461547)" style="font: 10px sans-serif; fill: #000; opacity: 1;">25</text></g><g class="mark-rule role-axis-domain" style="pointer-events: none;"><line transform="translate(0,300)" x2="0" y2="-300" style="fill: none; stroke: #888; stroke-width: 1; opacity: 1;"></line></g><g class="mark-text role-axis-title" style="pointer-events: none;"><text text-anchor="middle" transform="translate(-34,150) rotate(-90) translate(0,-2)" style="font: bold 11px sans-serif; fill: #000; opacity: 1;"># of CSOs</text></g></g></g></g></g></g></g></g></svg>