<svg class="marks" width="914" height="738" viewBox="0 0 457 369" version="1.1" xmlns="http://www.w3.org/2000/svg" xmlns:xlink="http://www.w3.org/1999/xlink"><g transform="translate(52,29)"><g class="mark-group role-frame root"><g transform="translate(0,0)"><path class="background" d="M0.5,0.5h400v300h-400Z" style="fill: none; stroke: #ddd;"></path><g><g class="mark-group role-axis"><g transform="translate(0.5,0.5)"><path class="background" d="M0,0h0v0h0Z" style="pointer-events: none; fill: none;"></path><g><g class="mark-rule role-axis-grid" style="pointer-events: none;"><line transform="translate(0,300)" x2="400" y2="0" style="fill: none; stroke: #ddd; stroke-width: 1; opacity: 1;"></line><line transform="translate(0,250)" x2="400" y2="0" style="fill: none; stroke: #ddd; stroke-width: 1; opacity: 1;"></line><line transform="translate(0,200)" x2="400" y2="0" style="fill: none; stroke: #ddd; stroke-width: 1; opacity: 1;"></line><line transform="translate(0,150)" x2="400" y2="0" style="fill: none; stroke: #ddd; stroke-width: 1; opacity: 1;"></line><line transform="translate(0,100)" x2="400" y2="0" style="fill: none; stroke: #ddd; stroke-width: 1; opacity: 1;"></line><line transform="translate(0,50)" x2="400" y2="0" style="fill: none; stroke: #ddd; stroke-width: 1; opacity: 1;"></line><line transform="translate(0,0)" x2="400" y2="0" style="fill: none; stroke: #ddd; stroke-width: 1; opacity: 1;"></line></g></g></g></g><g class="mark-rect role-mark marks"><path d="M147.8354430379747,75h4.063291139240505v225h-4.063291139240505Z" style="fill: #4c78a8;"></path><path d="M152.8987341772152,0h4.0632911392404765v300h-4.0632911392404765Z" style="fill: #4c78a8;"></path><path d="M132.64556962025316,175h4.063291139240505v125h-4.063291139240505Z" style="fill: #4c78a8;"></path><path d="M41.50632911392405,125h4.063291139240505v175h-4.063291139240505Z" style="fill: #4c78a8;"></path><path d="M163.0253164556962,200h4.063291139240505v100h-4.063291139240505Z" style="fill: #4c78a8;"></path><path d="M31.37974683544304,225h4.063291139240501v75h-4.063291139240501Z" style="fill: #4c78a8;"></path><path d="M223.78481012658227,275h4.063291139240533v25h-4.063291139240533Z" style="fill: #4c78a8;"></path><path d="M122.51898734177216,250h4.063291139240505v50h-4.063291139240505Z" style="fill: #4c78a8;"></path><path d="M1,150h4.063291139240507v150h-4.063291139240507Z" style="fill: #4c78a8;"></path><path d="M82.0126582278481,200h4.063291139240505v100h-4.063291139240505Z" style="fill: #4c78a8;"></path><path d="M395.9367088607595,275h4.063291139240505v25h-4.063291139240505Z" style="fill: #4c78a8;"></path><path d="M16.18987341772152,100h4.063291139240505v200h-4.063291139240505Z" style="fill: #4c78a8;"></path><path d="M157.96202531645568,225h4.063291139240533v75h-4.063291139240533Z" style="fill: #4c78a8;"></path><path d="M183.27848101265823,250h4.063291139240505v50h-4.063291139240505Z" style="fill: #4c78a8;"></path><path d="M208.59493670886076,75h4.0632911392404765v225h-4.0632911392404765Z" style="fill: #4c78a8;"></path><path d="M36.44303797468354,175h4.063291139240512v125h-4.063291139240512Z" style="fill: #4c78a8;"></path><path d="M87.07594936708861,175h4.063291139240505v125h-4.063291139240505Z" style="fill: #4c78a8;"></path><path d="M213.65822784810123,200h4.063291139240533v100h-4.063291139240533Z" style="fill: #4c78a8;"></path><path d="M21.253164556962027,125h4.063291139240505v175h-4.063291139240505Z" style="fill: #4c78a8;"></path><path d="M66.82278481012658,225h4.063291139240505v75h-4.063291139240505Z" style="fill: #4c78a8;"></path><path d="M188.34177215189874,150h4.063291139240505v150h-4.063291139240505Z" style="fill: #4c78a8;"></path><path d="M61.75949367088608,250h4.063291139240498v50h-4.063291139240498Z" style="fill: #4c78a8;"></path><path d="M112.39240506329114,175h4.063291139240505v125h-4.063291139240505Z" style="fill: #4c78a8;"></path><path d="M173.15189873417722,150h4.0632911392404765v150h-4.0632911392404765Z" style="fill: #4c78a8;"></path><path d="M233.91139240506328,275h4.063291139240505v25h-4.063291139240505Z" style="fill: #4c78a8;"></path><path d="M76.9493670886076,125h4.063291139240505v175h-4.063291139240505Z" style="fill: #4c78a8;"></path><path d="M92.13924050632912,200h4.063291139240505v100h-4.063291139240505Z" style="fill: #4c78a8;"></path><path d="M198.46835443037975,200h4.063291139240505v100h-4.063291139240505Z" style="fill: #4c78a8;"></path><path d="M142.77215189873417,225h4.063291139240533v75h-4.063291139240533Z" style="fill: #4c78a8;"></path><path d="M203.53164556962025,275h4.063291139240505v25h-4.063291139240505Z" style="fill: #4c78a8;"></path><path d="M97.20253164556962,150h4.063291139240505v150h-4.063291139240505Z" style="fill: #4c78a8;"></path><path d="M127.58227848101266,225h4.063291139240491v75h-4.063291139240491Z" style="fill: #4c78a8;"></path><path d="M6.063291139240507,175h4.063291139240507v125h-4.063291139240507Z" style="fill: #4c78a8;"></path><path d="M193.40506329113924,200h4.063291139240505v100h-4.063291139240505Z" style="fill: #4c78a8;"></path><path d="M26.31645569620253,175h4.063291139240508v125h-4.063291139240508Z" style="fill: #4c78a8;"></path><path d="M168.08860759493672,250h4.063291139240505v50h-4.063291139240505Z" style="fill: #4c78a8;"></path><path d="M102.26582278481013,250h4.063291139240491v50h-4.063291139240491Z" style="fill: #4c78a8;"></path><path d="M117.45569620253164,275h4.063291139240519v25h-4.063291139240519Z" style="fill: #4c78a8;"></path><path d="M107.32911392405062,250h4.063291139240519v50h-4.063291139240519Z" style="fill: #4c78a8;"></path><path d="M345.30379746835445,275h4.063291139240505v25h-4.063291139240505Z" style="fill: #4c78a8;"></path><path d="M269.3544303797469,275h4.063291139240448v25h-4.063291139240448Z" style="fill: #4c78a8;"></path><path d="M137.70886075949366,275h4.063291139240505v25h-4.063291139240505Z" style="fill: #4c78a8;"></path><path d="M46.56962025316456,275h4.063291139240505v25h-4.063291139240505Z" style="fill: #4c78a8;"></path></g><g class="mark-text role-title" style="pointer-events: none;"><text text-anchor="middle" transform="translate(200,-13)" style="font: bold 13px sans-serif; fill: #000; opacity: 1;">Distribution of Dirs' Dashboard usage, months</text></g><g class="mark-group role-axis"><g transform="translate(0.5,300.5)"><path class="background" d="M0,0h0v0h0Z" style="pointer-events: none; fill: none;"></path><g><g class="mark-rule role-axis-tick" style="pointer-events: none;"><line transform="translate(0,0)" x2="0" y2="5" style="fill: none; stroke: #888; stroke-width: 1; opacity: 1;"></line><line transform="translate(20,0)" x2="0" y2="5" style="fill: none; stroke: #888; stroke-width: 1; opacity: 1;"></line><line transform="translate(41,0)" x2="0" y2="5" style="fill: none; stroke: #888; stroke-width: 1; opacity: 1;"></line><line transform="translate(61,0)" x2="0" y2="5" style="fill: none; stroke: #888; stroke-width: 1; opacity: 1;"></line><line transform="translate(81,0)" x2="0" y2="5" style="fill: none; stroke: #888; stroke-width: 1; opacity: 1;"></line><line transform="translate(101,0)" x2="0" y2="5" style="fill: none; stroke: #888; stroke-width: 1; opacity: 1;"></line><line transform="translate(122,0)" x2="0" y2="5" style="fill: none; stroke: #888; stroke-width: 1; opacity: 1;"></line><line transform="translate(142,0)" x2="0" y2="5" style="fill: none; stroke: #888; stroke-width: 1; opacity: 1;"></line><line transform="translate(162,0)" x2="0" y2="5" style="fill: none; stroke: #888; stroke-width: 1; opacity: 1;"></line><line transform="translate(182,0)" x2="0" y2="5" style="fill: none; stroke: #888; stroke-width: 1; opacity: 1;"></line><line transform="translate(203,0)" x2="0" y2="5" style="fill: none; stroke: #888; stroke-width: 1; opacity: 1;"></line><line transform="translate(223,0)" x2="0" y2="5" style="fill: none; stroke: #888; stroke-width: 1; opacity: 1;"></line><line transform="translate(243,0)" x2="0" y2="5" style="fill: none; stroke: #888; stroke-width: 1; opacity: 1;"></line><line transform="translate(263,0)" x2="0" y2="5" style="fill: none; stroke: #888; stroke-width: 1; opacity: 1;"></line><line transform="translate(284,0)" x2="0" y2="5" style="fill: none; stroke: #888; stroke-width: 1; opacity: 1;"></line><line transform="translate(304,0)" x2="0" y2="5" style="fill: none; stroke: #888; stroke-width: 1; opacity: 1;"></line><line transform="translate(324,0)" x2="0" y2="5" style="fill: none; stroke: #888; stroke-width: 1; opacity: 1;"></line><line transform="translate(344,0)" x2="0" y2="5" style="fill: none; stroke: #888; stroke-width: 1; opacity: 1;"></line><line transform="translate(365,0)" x2="0" y2="5" style="fill: none; stroke: #888; stroke-width: 1; opacity: 1;"></line><line transform="translate(385,0)" x2="0" y2="5" style="fill: none; stroke: #888; stroke-width: 1; opacity: 1;"></line></g><g class="mark-text role-axis-label" style="pointer-events: none;"><text text-anchor="start" transform="translate(0,15)" style="font: 10px sans-serif; fill: #000; opacity: 1;">0</text><text text-anchor="middle" transform="translate(20.253164556962027,15)" style="font: 10px sans-serif; fill: #000; opacity: 1;">4</text><text text-anchor="middle" transform="translate(40.50632911392405,15)" style="font: 10px sans-serif; fill: #000; opacity: 1;">8</text><text text-anchor="middle" transform="translate(60.75949367088608,15)" style="font: 10px sans-serif; fill: #000; opacity: 1;">12</text><text text-anchor="middle" transform="translate(81.0126582278481,15)" style="font: 10px sans-serif; fill: #000; opacity: 1;">16</text><text text-anchor="middle" transform="translate(101.26582278481013,15)" style="font: 10px sans-serif; fill: #000; opacity: 1;">20</text><text text-anchor="middle" transform="translate(121.51898734177216,15)" style="font: 10px sans-serif; fill: #000; opacity: 1;">24</text><text text-anchor="middle" transform="translate(141.77215189873417,15)" style="font: 10px sans-serif; fill: #000; opacity: 1;">28</text><text text-anchor="middle" transform="translate(162.0253164556962,15)" style="font: 10px sans-serif; fill: #000; opacity: 1;">32</text><text text-anchor="middle" transform="translate(182.27848101265823,15)" style="font: 10px sans-serif; fill: #000; opacity: 1;">36</text><text text-anchor="middle" transform="translate(202.53164556962025,15)" style="font: 10px sans-serif; fill: #000; opacity: 1;">40</text><text text-anchor="middle" transform="translate(222.78481012658227,15)" style="font: 10px sans-serif; fill: #000; opacity: 1;">44</text><text text-anchor="middle" transform="translate(243.03797468354432,15)" style="font: 10px sans-serif; fill: #000; opacity: 1;">48</text><text text-anchor="middle" transform="translate(263.2911392405063,15)" style="font: 10px sans-serif; fill: #000; opacity: 1;">52</text><text text-anchor="middle" transform="translate(283.54430379746833,15)" style="font: 10px sans-serif; fill: #000; opacity: 1;">56</text><text text-anchor="middle" transform="translate(303.7974683544304,15)" style="font: 10px sans-serif; fill: #000; opacity: 1;">60</text><text text-anchor="middle" transform="translate(324.0506329113924,15)" style="font: 10px sans-serif; fill: #000; opacity: 1;">64</text><text text-anchor="middle" transform="translate(344.30379746835445,15)" style="font: 10px sans-serif; fill: #000; opacity: 1;">68</text><text text-anchor="middle" transform="translate(364.55696202531647,15)" style="font: 10px sans-serif; fill: #000; opacity: 1;">72</text><text text-anchor="middle" transform="translate(384.8101265822785,15)" style="font: 10px sans-serif; fill: #000; opacity: 1;">76</text></g><g class="mark-rule role-axis-domain" style="pointer-events: none;"><line transform="translate(0,0)" x2="400" y2="0" style="fill: none; stroke: #888; stroke-width: 1; opacity: 1;"></line></g><g class="mark-text role-axis-title" style="pointer-events: none;"><text text-anchor="middle" transform="translate(200,31)" style="font: bold 11px sans-serif; fill: #000; opacity: 1;"># Months has known about Dashboard</text></g></g></g></g><g class="mark-group role-axis"><g transform="translate(0.5,0.5)"><path class="background" d="M0,0h0v0h0Z" style="pointer-events: none; fill: none;"></path><g><g class="mark-rule role-axis-tick" style="pointer-events: none;"><line transform="translate(0,300)" x2="-5" y2="0" style="fill: none; stroke: #888; stroke-width: 1; opacity: 1;"></line><line transform="translate(0,250)" x2="-5" y2="0" style="fill: none; stroke: #888; stroke-width: 1; opacity: 1;"></line><line transform="translate(0,200)" x2="-5" y2="0" style="fill: none; stroke: #888; stroke-width: 1; opacity: 1;"></line><line transform="translate(0,150)" x2="-5" y2="0" style="fill: none; stroke: #888; stroke-width: 1; opacity: 1;"></line><line transform="translate(0,100)" x2="-5" y2="0" style="fill: none; stroke: #888; stroke-width: 1; opacity: 1;"></line><line transform="translate(0,50)" x2="-5" y2="0" style="fill: none; stroke: #888; stroke-width: 1; opacity: 1;"></line><line transform="translate(0,0)" x2="-5" y2="0" style="fill: none; stroke: #888; stroke-width: 1; opacity: 1;"></line></g><g class="mark-text role-axis-label" style="pointer-events: none;"><text text-anchor="end" transform="translate(-7,303)" style="font: 10px sans-serif; fill: #000; opacity: 1;">0</text><text text-anchor="end" transform="translate(-7,253)" style="font: 10px sans-serif; fill: #000; opacity: 1;">2</text><text text-anchor="end" transform="translate(-7,203)" style="font: 10px sans-serif; fill: #000; opacity: 1;">4</text><text text-anchor="end" transform="translate(-7,153)" style="font: 10px sans-serif; fill: #000; opacity: 1;">6</text><text text-anchor="end" transform="translate(-7,103)" style="font: 10px sans-serif; fill: #000; opacity: 1;">8</text><text text-anchor="end" transform="translate(-7,53)" style="font: 10px sans-serif; fill: #000; opacity: 1;">10</text><text text-anchor="end" transform="translate(-7,3)" style="font: 10px sans-serif; fill: #000; opacity: 1;">12</text></g><g class="mark-rule role-axis-domain" style="pointer-events: none;"><line transform="translate(0,300)" x2="0" y2="-300" style="fill: none; stroke: #888; stroke-width: 1; opacity: 1;"></line></g><g class="mark-text role-axis-title" style="pointer-events: none;"><text text-anchor="middle" transform="translate(-34,150) rotate(-90) translate(0,-2)" style="font: bold 11px sans-serif; fill: #000; opacity: 1;"># of Respondents</text></g></g></g></g></g></g></g></g></svg>